<svg width="24" height="24" viewBox="0 0 24 24" fill="none" xmlns="http://www.w3.org/2000/svg">
<path d="M21.75 21H3V2.25C3 1.83562 2.66438 1.5 2.25 1.5C1.83562 1.5 1.5 1.83562 1.5 2.25V21.75C1.5 21.9488 1.57875 22.14 1.71937 22.2806C1.86 22.4212 2.05125 22.5 2.24999 22.5H21.75C22.1644 22.5 22.5 22.1644 22.5 21.75C22.5 21.3356 22.1644 21 21.75 21L21.75 21Z" fill="#053B51"/>
<path d="M5.25 19.5H8.25C8.44875 19.5 8.64 19.4212 8.78062 19.2806C8.92124 19.14 8.99999 18.9487 8.99999 18.75V12C8.99999 11.8012 8.92124 11.61 8.78062 11.4694C8.63999 11.3287 8.44874 11.25 8.25 11.25H5.25C4.83562 11.25 4.5 11.5856 4.5 12V18.75C4.5 18.9487 4.57875 19.14 4.71937 19.2806C4.86 19.4212 5.05125 19.5 5.24999 19.5L5.25 19.5ZM6 12.75H7.5V18H6V12.75Z" fill="#053B51"/>
<path d="M11.25 19.5H14.25C14.4487 19.5 14.64 19.4212 14.7806 19.2806C14.9212 19.14 15 18.9487 15 18.75V8.99999C15 8.80124 14.9212 8.60999 14.7806 8.46937C14.64 8.32875 14.4487 8.25 14.25 8.25H11.25C10.8356 8.25 10.5 8.58562 10.5 9V18.75C10.5 18.9487 10.5787 19.14 10.7194 19.2806C10.86 19.4212 11.0512 19.5 11.25 19.5L11.25 19.5ZM12 9.74998H13.5V18H12V9.74998Z" fill="#053B51"/>
<path d="M17.25 19.5H20.25C20.4488 19.5 20.64 19.4212 20.7806 19.2806C20.9212 19.14 21 18.9487 21 18.75V6.74999C21 6.55124 20.9212 6.35999 20.7806 6.21937C20.64 6.07875 20.4487 6 20.25 6H17.25C16.8356 6 16.5 6.33562 16.5 6.75V18.75C16.5 18.9487 16.5787 19.14 16.7194 19.2806C16.86 19.4212 17.0512 19.5 17.25 19.5L17.25 19.5ZM18 7.49998H19.5V18H18V7.49998Z" fill="#053B51"/>
</svg>
