<svg width="22" height="22" viewBox="0 0 22 22" fill="none" xmlns="http://www.w3.org/2000/svg">
<path d="M10.0784 0.961753C7.5236 1.19894 5.15552 2.40082 3.45584 4.32367C1.7571 6.24648 0.8552 8.74495 0.93392 11.3089C1.01361 13.874 2.06737 16.3114 3.88136 18.1263C5.69636 19.9404 8.13392 20.9941 10.6988 21.0738C13.263 21.1525 15.7614 20.2506 17.684 18.5518C19.6068 16.8522 20.8088 14.4841 21.0459 11.9293C21.3122 8.94703 20.2425 5.99959 18.1256 3.88183C16.0078 1.76496 13.0604 0.695353 10.0782 0.961513L10.0784 0.961753ZM16.4216 8.73559L10.4478 14.6466C10.0756 15.0094 9.48121 15.0094 9.10902 14.6466L5.58774 11.2837C5.20522 10.9162 5.19212 10.3077 5.56055 9.92429C5.92804 9.54178 6.53649 9.52867 6.91993 9.8971L9.76153 12.6233L15.0799 7.36942C15.4596 7.01317 16.054 7.02349 16.4205 7.39474C16.7862 7.76506 16.7899 8.36035 16.429 8.73535L16.4216 8.73559Z" fill="#0296D0"/>
</svg>
