<svg width="24" height="24" viewBox="0 0 24 24" fill="none" xmlns="http://www.w3.org/2000/svg">
<path fill-rule="evenodd" clip-rule="evenodd" d="M12 0C5.3673 0 0 5.3649 0 12C0 18.6327 5.3673 24 12 24C18.6351 24 24 18.6327 24 12C24 5.3637 18.6363 0 12 0ZM7.425 6.9C7.44727 6.89883 7.46836 6.89883 7.49063 6.9C7.65234 6.89883 7.80821 6.96211 7.92188 7.07813L12.0001 11.1467L16.0687 7.07813C16.1777 6.9668 16.3253 6.90352 16.4812 6.9C16.7296 6.88945 16.9593 7.03477 17.0566 7.26327C17.155 7.49296 17.1011 7.75779 16.9218 7.93125L12.8436 12.0095L16.9218 16.0781C17.0355 16.1905 17.0988 16.3441 17.0988 16.5046C17.0988 16.664 17.0355 16.8175 16.9218 16.9312C16.8093 17.0437 16.6558 17.1081 16.4952 17.1081C16.3347 17.1081 16.1823 17.0437 16.0687 16.9312L12.0001 12.853L7.92187 16.9312C7.68632 17.1667 7.30429 17.1667 7.06873 16.9312C6.83317 16.6956 6.83318 16.3136 7.06873 16.0781L11.1373 12.0095L7.06873 7.93125C6.89881 7.76836 6.83904 7.52226 6.91639 7.30077C6.99256 7.07929 7.19178 6.92226 7.42498 6.9H7.425Z" fill="#959595"/>
</svg>
