<svg width="56" height="56" viewBox="0 0 56 56" fill="none" xmlns="http://www.w3.org/2000/svg">
<rect x="0.5" y="0.5" width="55" height="55" rx="27.5" fill="white" stroke="#0296D0"/>
<g clip-path="url(#clip0)">
<path d="M28 19C25.6125 19 23.3238 19.9487 21.6361 21.6363C19.9486 23.3237 18.9999 25.6126 18.9999 28.0001C18.9999 30.3876 19.9486 32.6763 21.6361 34.3639C23.3236 36.0514 25.6125 37.0002 28 37.0002C30.3875 37.0002 32.6761 36.0515 34.3638 34.3639C36.0513 32.6764 37.0001 30.3876 37.0001 28.0001C36.9976 25.6139 36.0488 23.3265 34.3613 21.6388C32.6738 19.9513 30.3863 19.0026 28 19.0001L28 19ZM33.3776 25.5075L26.2477 32.945C26.0614 33.14 25.8039 33.25 25.5339 33.25C25.2651 33.25 25.0077 33.1412 24.8201 32.9475L22.1276 30.1574C21.6451 29.6587 21.6226 28.8749 22.0751 28.35C22.3151 28.07 22.6626 27.905 23.0314 27.8949C23.4001 27.8862 23.7564 28.0324 24.0101 28.2999L25.5351 29.9125L31.4852 23.6574C31.7402 23.3887 32.0965 23.2412 32.4652 23.2499C32.8352 23.2587 33.184 23.4249 33.4252 23.7049C33.8765 24.2287 33.8552 25.0087 33.3777 25.5074L33.3776 25.5075Z" fill="#0296D0"/>
<path d="M42.4301 23.7571H41.1976C40.9663 23.0383 40.6776 22.3396 40.3326 21.6671L41.2026 20.7946C41.8151 20.1808 41.8151 19.1883 41.2026 18.5746L37.425 14.797C36.8112 14.1845 35.8187 14.1845 35.205 14.797L34.3325 15.667C33.66 15.322 32.9612 15.0332 32.2425 14.802V13.5695C32.2412 12.7033 31.5387 12.0008 30.6725 11.9995H25.3275C24.4613 12.0008 23.7588 12.7033 23.7576 13.5695V14.802C23.0388 15.0333 22.3401 15.322 21.6676 15.667L20.7951 14.797C20.1813 14.1845 19.1888 14.1845 18.5751 14.797L14.7975 18.5746C14.185 19.1883 14.185 20.1808 14.7975 20.7946L15.6675 21.6671C15.3225 22.3396 15.0337 23.0384 14.8025 23.7571H13.57C12.7037 23.7583 12.0012 24.4608 12 25.3271V30.672C12.0012 31.5383 12.7037 32.2408 13.57 32.242H14.8025C15.0337 32.9608 15.3225 33.6595 15.6675 34.332L14.7975 35.2045C14.185 35.8183 14.185 36.8107 14.7975 37.4245L18.5751 41.2021C19.1888 41.8146 20.1813 41.8146 20.7951 41.2021L21.6676 40.3321C22.3401 40.6771 23.0388 40.9658 23.7576 41.1971V42.4296C23.7588 43.2958 24.4613 43.9983 25.3275 43.9996H30.6725C31.5387 43.9983 32.2412 43.2958 32.2425 42.4296V41.1971C32.9612 40.9658 33.66 40.6771 34.3325 40.3321L35.205 41.2021C35.8187 41.8146 36.8112 41.8146 37.425 41.2021L41.2026 37.4245C41.8151 36.8107 41.8151 35.8183 41.2026 35.2045L40.3326 34.332C40.6776 33.6595 40.9663 32.9607 41.1976 32.242H42.4301C43.2963 32.2408 43.9988 31.5383 44.0001 30.672V25.3271C43.9988 24.4608 43.2963 23.7583 42.4301 23.7571ZM28 37.9996C25.3475 37.9996 22.8038 36.9459 20.9286 35.0709C19.0534 33.1959 17.9999 30.652 17.9999 27.9995C17.9999 25.3471 19.0537 22.8034 20.9286 20.9282C22.8036 19.053 25.3475 17.9994 28 17.9994C30.6525 17.9994 33.1962 19.0532 35.0714 20.9282C36.9466 22.8032 38.0001 25.3471 38.0001 27.9995C37.9976 30.6508 36.9426 33.1931 35.0676 35.0671C33.1938 36.9421 30.6513 37.997 28.0001 37.9996L28 37.9996Z" fill="#0296D0"/>
</g>
<defs>
<clipPath id="clip0">
<rect width="32" height="32" fill="white" transform="translate(12 12)"/>
</clipPath>
</defs>
</svg>
