<svg width="56" height="56" viewBox="0 0 56 56" fill="none" xmlns="http://www.w3.org/2000/svg">
<rect x="0.5" y="0.5" width="55" height="55" rx="27.5" fill="#0296D0" stroke="#0296D0"/>
<path d="M42.4411 34.5586L31.5322 16.4733C30.7986 15.2601 29.4545 14.5147 28.0003 14.5147C26.5462 14.5147 25.2019 15.2601 24.4684 16.4733L13.5595 34.5586C12.8294 35.7809 12.8283 37.2864 13.5572 38.5087C14.2849 39.7322 15.6314 40.4866 17.0915 40.4911H38.9096C40.3697 40.4866 41.7162 39.7321 42.4439 38.5087C43.1728 37.2864 43.1716 35.7809 42.4415 34.5586H42.4411ZM39.9462 37.129H39.945C39.7376 37.4937 39.3392 37.7169 38.9091 37.709H17.091C16.6633 37.7078 16.2672 37.4869 16.0539 37.1278C15.8406 36.7699 15.8406 36.3281 16.0551 35.969L26.964 17.8837C27.1808 17.5337 27.571 17.3196 27.9929 17.3196C28.4148 17.3196 28.8062 17.5337 29.023 17.8837L39.9319 35.969C40.1533 36.3201 40.1592 36.7608 39.9448 37.1165L39.9462 37.129Z" fill="#F5FBFD"/>
<path d="M30.0052 33.7022C30.0052 34.7727 29.1075 35.6393 28.0001 35.6393C26.8927 35.6393 25.995 34.7727 25.995 33.7022C25.995 32.6317 26.8927 31.764 28.0001 31.764C29.1075 31.764 30.0052 32.6317 30.0052 33.7022Z" fill="#F5FBFD"/>
<path d="M28 22.1814C27.3203 22.1814 26.6676 22.4419 26.1871 22.9064C25.7066 23.372 25.4359 24.0018 25.4359 24.6589V24.8696V24.8707C25.45 25.0168 25.477 25.163 25.518 25.3057L26.7039 29.5243L26.7051 29.5232C26.8609 30.0873 27.3824 30.4838 27.9859 30.4986C28.5977 30.4804 29.1215 30.0715 29.2679 29.4972L30.4539 25.3058H30.455C30.489 25.1665 30.5113 25.026 30.523 24.8833V24.659C30.523 23.3064 29.4004 22.203 28 22.1815L28 22.1814Z" fill="#F5FBFD"/>
</svg>
