<svg width="56" height="56" viewBox="0 0 56 56" fill="none" xmlns="http://www.w3.org/2000/svg">
<rect x="0.5" y="0.5" width="55" height="55" rx="27.5" fill="white" stroke="#0296D0"/>
<path d="M39.5914 29.4941C40.2989 29.4941 40.8714 28.9216 40.8714 28.2141V21.2592V21.258V19.978L32.6352 19.9792C31.9277 19.9792 31.3552 20.5517 31.3552 21.2592C31.3552 21.9667 31.9277 22.5392 32.6352 22.5392H36.5002L31.8326 27.2067H22.4851L17.689 32.0016V16.8567C17.689 16.1492 17.1165 15.5767 16.409 15.5767C15.7015 15.5767 15.129 16.1492 15.129 16.8567V35.0915V35.0928V39.1453C15.129 39.8528 15.7015 40.4253 16.409 40.4253H39.5901C40.2976 40.4253 40.8701 39.8528 40.8701 39.1453C40.8701 38.4378 40.2976 37.8653 39.5901 37.8653L17.689 37.864V35.6203L23.5453 29.764H32.8928L38.3117 24.3464V28.2113C38.3117 28.9213 38.8842 29.4938 39.5917 29.4938L39.5914 29.4941Z" fill="#0296D0"/>
</svg>
