<svg width="32" height="32" viewBox="0 0 32 32" fill="none" xmlns="http://www.w3.org/2000/svg">
<path d="M11.6364 13.091C12.4397 13.091 13.0909 12.4398 13.0909 11.6364C13.0909 10.8331 12.4397 10.1819 11.6364 10.1819C10.833 10.1819 10.1818 10.8331 10.1818 11.6364C10.1818 12.4398 10.833 13.091 11.6364 13.091Z" fill="#0296D0"/>
<path d="M13.0909 13.8181H10.1818V21.8181H13.0909V13.8181Z" fill="#0296D0"/>
<path d="M16 0C7.16344 0 0 7.16344 0 16C0 24.8366 7.16344 32 16 32C24.8366 32 32 24.8366 32 16C32 7.16344 24.8366 0 16 0ZM16 30.5454C7.96675 30.5454 1.45456 24.0332 1.45456 16C1.45456 7.96675 7.96675 1.45456 16 1.45456C24.0332 1.45456 30.5454 7.96675 30.5454 16C30.5454 24.0332 24.0332 30.5454 16 30.5454Z" fill="#0296D0"/>
<path d="M19.8982 13.8181C17.7164 13.8181 17.4546 15.1127 17.4546 15.1127V13.8181H14.5455V21.8181H17.4546V17.4545C17.4546 17.4545 17.4546 15.9999 18.6909 15.9999C19.4182 15.9999 19.6364 16.6472 19.6364 17.4545V21.8181H22.5454V17.4545C22.5454 15.1781 21.5564 13.8181 19.8982 13.8181Z" fill="#0296D0"/>
</svg>
