<svg width="168" height="39" viewBox="0 0 168 39" fill="none" xmlns="http://www.w3.org/2000/svg">
<g clip-path="url(#clip0)">
<path d="M167.936 24.4218C167.881 24.2474 167.792 24.0859 167.673 23.9466C167.554 23.8073 167.409 23.6932 167.246 23.6109C167.082 23.5285 166.904 23.4797 166.721 23.4673C166.539 23.4549 166.356 23.4791 166.183 23.5385L164.393 24.1179C165.983 20.834 166.461 17.1223 165.754 13.5433C165.048 9.96417 163.195 6.7119 160.476 4.27729C157.758 1.84269 154.32 0.357896 150.683 0.0470117C147.045 -0.263873 143.405 0.616026 140.312 2.5539C137.219 4.49178 134.841 7.38246 133.537 10.7896C132.232 14.1968 132.072 17.9356 133.081 21.4417C134.089 24.9478 136.212 28.0308 139.128 30.2256C142.044 32.4203 145.595 33.6076 149.246 33.6083C149.612 33.6083 149.963 33.4631 150.221 33.2047C150.48 32.9462 150.625 32.5957 150.625 32.2303C150.625 31.8648 150.48 31.5143 150.221 31.2559C149.963 30.9975 149.612 30.8523 149.246 30.8523C146.202 30.8402 143.245 29.8399 140.82 28.0021C138.395 26.1643 136.633 23.5887 135.8 20.6633C134.968 17.7378 135.109 14.6212 136.203 11.7831C137.297 8.94492 139.285 6.53902 141.866 4.92796C144.448 3.31689 147.484 2.58795 150.516 2.85099C153.548 3.11403 156.413 4.3548 158.678 6.38631C160.943 8.41782 162.486 11.13 163.074 14.1141C163.663 17.0982 163.264 20.1925 161.94 22.9308L161.324 21.044C161.21 20.6945 160.961 20.4047 160.633 20.2384C160.305 20.0721 159.924 20.0429 159.574 20.1572C159.224 20.2715 158.934 20.52 158.768 20.848C158.602 21.176 158.572 21.5566 158.687 21.9061L160.313 26.9021C160.407 27.1759 160.583 27.4142 160.817 27.5848C161.051 27.7554 161.332 27.8501 161.621 27.8561C161.766 27.8568 161.909 27.8329 162.046 27.7855L167.052 26.1602C167.395 26.0393 167.678 25.7914 167.842 25.4677C168.007 25.1441 168.041 24.7696 167.936 24.4218V24.4218Z" fill="#0E132C"/>
<path d="M0 22.528V6.63544H4.75212V22.528C4.75212 24.9518 5.96843 26.6548 9.14358 26.6548C12.1632 26.6548 13.5704 24.8811 13.5704 22.4573V6.63544H18.3296V22.528C18.3296 27.5381 15.2464 30.4495 9.24258 30.4495C3.23879 30.4495 0 27.6017 0 22.528Z" fill="#0296D0"/>
<path d="M19.8005 13.2567H24.0929V15.3767H24.1919C24.7425 14.5764 25.4825 13.9247 26.3462 13.4796C27.2099 13.0345 28.1704 12.8099 29.1421 12.8257C33.6042 12.8257 36.4541 16.4578 36.4541 21.7012C36.4541 27.1424 33.5052 30.5767 29.1774 30.5767C28.2301 30.6396 27.2829 30.452 26.4313 30.0327C25.5796 29.6134 24.8536 28.9772 24.3263 28.1882H24.2556V35.5657H19.8005V13.2567ZM31.9283 21.8072C31.9283 18.6273 30.818 16.4013 28.0601 16.4013C25.3022 16.4013 24.1637 18.7898 24.1637 21.8072C24.1637 24.8246 25.578 26.8456 28.2228 26.8456C30.4715 26.8527 31.9141 24.98 31.9141 21.8072H31.9283Z" fill="#0296D0"/>
<path d="M37.2603 21.6729C37.2603 16.4296 40.2445 12.7974 44.4379 12.7974C45.3795 12.7547 46.3155 12.9624 47.1503 13.3994C47.9852 13.8364 48.6891 14.4871 49.19 15.2848H49.289V6.63544H53.7442V30.0609H49.4588V27.8632H49.388C48.869 28.718 48.1301 29.418 47.2483 29.8903C46.3664 30.3626 45.3739 30.5899 44.3743 30.5485C40.1455 30.5485 37.2603 27.1141 37.2603 21.6729ZM49.388 21.7719C49.388 18.5637 48.3415 16.4013 45.4916 16.4013C43.0307 16.4013 41.7861 18.5637 41.7861 21.6729C41.7861 24.9165 43.059 26.8174 45.3219 26.8174C48.0162 26.8527 49.388 24.8529 49.388 21.7719V21.7719Z" fill="#0296D0"/>
<path d="M66.275 28.1953H66.2043C65.3557 29.4673 64.1394 30.4495 61.2542 30.4495C57.8174 30.4495 55.3918 28.6476 55.3918 25.3122C55.3918 21.6093 58.4043 20.4292 62.1452 19.9063C64.9314 19.5106 66.2043 19.2845 66.2043 18.0054C66.2043 16.7264 65.2567 16.0056 63.3757 16.0056C61.2542 16.0056 60.2571 16.7617 60.1298 18.3658H56.1768C56.3041 15.4191 58.5033 12.8257 63.4181 12.8257C68.4672 12.8257 70.4897 15.087 70.4897 19.0159V27.5593C70.4897 28.8384 70.6807 29.5945 71.0767 29.8913V30.0538H66.7983C66.4947 29.4781 66.3164 28.8448 66.275 28.1953V28.1953ZM66.275 24.1321V21.6093C65.2957 22.0774 64.2591 22.4147 63.1918 22.6128C60.8653 23.1357 59.7197 23.6586 59.7197 25.2345C59.7197 26.8103 60.7663 27.3544 62.3362 27.3544C64.8961 27.3403 66.3033 25.7715 66.3033 24.1321H66.275Z" fill="#0296D0"/>
<path d="M71.5858 13.2567H73.9124V8.0134H78.2685V13.2567H81.1537V16.2035H78.2685V25.1143C78.2364 25.3414 78.2578 25.5729 78.3308 25.7903C78.4038 26.0077 78.5265 26.2052 78.6891 26.367C78.8517 26.5288 79.0498 26.6506 79.2677 26.7226C79.4856 26.7946 79.7173 26.815 79.9444 26.782C80.496 26.782 81.2527 26.782 81.2527 26.782V30.0538C81.2527 30.0538 80.2344 30.1174 78.4665 30.1174C76.3026 30.1174 73.9124 29.2694 73.9124 26.0895V16.1964H71.5858V13.2567Z" fill="#0296D0"/>
<path d="M82.0305 21.6376C82.0305 16.6911 85.4108 12.7974 90.3255 12.7974C95.7353 12.7974 98.6205 16.9243 98.6205 22.9167H86.4362C86.7615 25.503 88.2041 27.1142 90.7286 27.1142C91.4218 27.1774 92.1165 27.0092 92.7038 26.6358C93.2912 26.2624 93.738 25.705 93.9745 25.0507H98.366C97.7437 28.0257 95.0847 30.5485 90.764 30.5485C85.1845 30.5485 82.0305 26.6548 82.0305 21.6376ZM86.4927 19.8357H93.9674C93.8331 17.7157 92.4258 16.2317 90.4316 16.2317C88.0414 16.2529 86.8958 17.6662 86.4998 19.8357H86.4927Z" fill="#0296D0"/>
<path d="M100.657 6.63544H105.416V30.0609H100.657V6.63544Z" fill="#0296D0"/>
<path d="M107.411 6.63544H126.263V10.6351H119.192V30.0609H114.44V10.6351H107.368L107.411 6.63544Z" fill="#0296D0"/>
<path d="M30.7049 38.2297C30.6301 38.2873 30.5495 38.3371 30.4645 38.3781C30.3768 38.4203 30.2841 38.4511 30.1887 38.47C30.077 38.493 29.9633 38.5048 29.8492 38.5053C29.667 38.5071 29.4864 38.471 29.3189 38.3993C29.159 38.3329 29.0145 38.2343 28.8946 38.1096C28.7741 37.989 28.6801 37.8446 28.6188 37.6856C28.5476 37.5155 28.5116 37.3329 28.5127 37.1486C28.5133 36.9674 28.5469 36.7878 28.6117 36.6186C28.6798 36.4594 28.7756 36.3134 28.8946 36.1875C29.0165 36.0651 29.1604 35.9668 29.3189 35.8978C29.4938 35.826 29.6813 35.7899 29.8704 35.7918C29.9786 35.7804 30.0876 35.7804 30.1957 35.7918C30.2901 35.8115 30.3824 35.8399 30.4715 35.8766C30.5507 35.912 30.6264 35.9545 30.6978 36.0038C30.7687 36.0544 30.8349 36.1111 30.8958 36.1734L30.5988 36.5126C30.4993 36.4179 30.3875 36.3371 30.2664 36.2723C30.1403 36.2137 30.0024 36.1847 29.8634 36.1875C29.7441 36.1856 29.6258 36.2097 29.5169 36.2582C29.4126 36.3051 29.3188 36.3723 29.2411 36.456C29.1635 36.5426 29.1034 36.6434 29.0643 36.7528C29.0214 36.8681 28.9999 36.9902 29.0006 37.1132C28.9993 37.2386 29.0209 37.3631 29.0643 37.4807C29.1034 37.5901 29.1635 37.6909 29.2411 37.7775C29.3186 37.8633 29.4123 37.9329 29.5169 37.9824C29.6269 38.0275 29.7445 38.0515 29.8634 38.0531C30.008 38.0579 30.1514 38.0263 30.2806 37.9612C30.4019 37.8905 30.5156 37.8076 30.62 37.7139L30.917 38.0107C30.8507 38.0878 30.7799 38.161 30.7049 38.2297V38.2297Z" fill="#0E132C"/>
<path d="M34.4811 37.6715C34.413 37.8307 34.3172 37.9767 34.1983 38.1026C34.0715 38.2257 33.9228 38.3239 33.7598 38.3923C33.5863 38.4695 33.3981 38.5081 33.2082 38.5054C33.0167 38.5082 32.8267 38.4721 32.6496 38.3994C32.488 38.3322 32.3414 38.2338 32.2182 38.1096C32.0992 37.9837 32.0035 37.8378 31.9353 37.6786C31.8705 37.5094 31.837 37.3298 31.8363 37.1486C31.8359 36.9696 31.8695 36.7921 31.9353 36.6257C32.0016 36.4638 32.1003 36.3171 32.2253 36.1946C32.3462 36.0661 32.4933 35.9649 32.6566 35.8978C33.0132 35.7566 33.4103 35.7566 33.7669 35.8978C33.9284 35.9649 34.0751 36.0634 34.1983 36.1875C34.3182 36.3127 34.4141 36.4588 34.4811 36.6186C34.547 36.7851 34.5806 36.9625 34.5801 37.1415C34.5795 37.3227 34.5459 37.5023 34.4811 37.6715V37.6715ZM34.0285 36.7882C33.9894 36.6788 33.9293 36.578 33.8517 36.4914C33.769 36.4053 33.6706 36.3358 33.5618 36.2865C33.4505 36.2375 33.3298 36.2133 33.2082 36.2158C33.0843 36.2125 32.9611 36.2367 32.8476 36.2865C32.7402 36.3314 32.6437 36.3989 32.5647 36.4843C32.4436 36.6208 32.3629 36.7883 32.3317 36.968C32.3005 37.1478 32.3199 37.3326 32.3879 37.5019C32.4249 37.616 32.4879 37.72 32.5718 37.8058C32.6508 37.8912 32.7473 37.9587 32.8546 38.0036C32.9676 38.0559 33.0908 38.0824 33.2153 38.0814C33.3366 38.0805 33.4566 38.0565 33.5689 38.0107C33.6766 37.9631 33.773 37.8933 33.8517 37.8058C33.9324 37.7215 33.9928 37.62 34.0285 37.509C34.1191 37.2821 34.1191 37.0292 34.0285 36.8023V36.7882Z" fill="#0E132C"/>
<path d="M37.0622 37.8128L36.2419 36.5832V38.4559H35.7823V35.8342H36.2702L37.0693 37.0779L37.8684 35.8342H38.3634V38.4559H37.9038V36.5762L37.0622 37.8128Z" fill="#0E132C"/>
<path d="M41.6022 37.1062C41.547 37.2149 41.4699 37.3111 41.3759 37.3888C41.2745 37.462 41.1624 37.5192 41.0436 37.5584C40.91 37.5955 40.772 37.6145 40.6334 37.615H40.1101V38.4559H39.6505V35.8342H40.6829C40.8245 35.8324 40.9655 35.8539 41.1001 35.8978C41.2169 35.9351 41.325 35.9951 41.4184 36.0745C41.5021 36.1522 41.5694 36.2459 41.6164 36.3501C41.6786 36.4733 41.7147 36.608 41.7224 36.7458C41.7102 36.8735 41.6691 36.9967 41.6022 37.1062V37.1062ZM41.0577 36.3995C40.9382 36.315 40.7938 36.2727 40.6476 36.2794H40.1101V37.2263H40.6476C40.7973 37.2343 40.945 37.1893 41.0648 37.0991C41.1138 37.0561 41.1525 37.0026 41.1782 36.9427C41.2039 36.8828 41.2159 36.818 41.2133 36.7529C41.2234 36.6812 41.2143 36.6081 41.187 36.5411C41.1597 36.4741 41.1151 36.4155 41.0577 36.3713V36.3995Z" fill="#0E132C"/>
<path d="M44.9895 37.3252C44.9912 37.4979 44.9649 37.6697 44.9117 37.834C44.8609 37.9722 44.7841 38.0993 44.6854 38.2085C44.5835 38.3081 44.4602 38.3831 44.3248 38.4276C44.0232 38.5216 43.7 38.5216 43.3984 38.4276C43.266 38.3812 43.1453 38.3065 43.0448 38.2085C42.9455 38.1052 42.8685 37.9825 42.8185 37.8482C42.7653 37.6863 42.739 37.5168 42.7407 37.3464V35.8342H43.2004V37.3252C43.1843 37.5272 43.2477 37.7275 43.3772 37.8835C43.4403 37.9481 43.5165 37.9985 43.6006 38.0314C43.6847 38.0643 43.7749 38.0789 43.8651 38.0743C43.955 38.0812 44.0452 38.0684 44.1295 38.0366C44.2139 38.0049 44.2902 37.955 44.3531 37.8905C44.4171 37.8161 44.4657 37.7296 44.4961 37.6362C44.5264 37.5428 44.5379 37.4443 44.5299 37.3464V35.8342H44.9895V37.3252Z" fill="#0E132C"/>
<path d="M47.3797 38.4559H46.9201V36.2653H46.0644V35.8342H48.1859V36.2653H47.3797V38.4559Z" fill="#0E132C"/>
<path d="M51.255 36.2511H49.7629V36.9578H51.0852V37.3747H49.7629V38.0813H51.2691V38.4912H49.3103V35.8342H51.255V36.2511Z" fill="#0E132C"/>
<path d="M54.1331 38.4559L53.4825 37.5443H52.9097V38.4559H52.4501V35.8342H53.6169C53.7556 35.8328 53.8938 35.8519 54.027 35.8907C54.1385 35.9269 54.2418 35.9845 54.3311 36.0603C54.4167 36.1308 54.4845 36.2203 54.5291 36.3218C54.5732 36.4318 54.5948 36.5496 54.5928 36.6681C54.5936 36.7685 54.5793 36.8686 54.5503 36.9648C54.5167 37.0463 54.4715 37.1225 54.416 37.191C54.3609 37.2564 54.2966 37.3136 54.225 37.3606C54.144 37.4044 54.0587 37.4399 53.9705 37.4666L54.6776 38.4559H54.1331ZM53.9846 36.3359C53.8668 36.2539 53.7248 36.214 53.5815 36.2229H52.8744V37.1062H53.5815C53.7238 37.1162 53.8648 37.0734 53.9775 36.986C54.0265 36.9477 54.0655 36.8981 54.0914 36.8416C54.1172 36.785 54.1291 36.7231 54.126 36.661C54.1251 36.6043 54.112 36.5484 54.0876 36.4972C54.0632 36.446 54.0281 36.4006 53.9846 36.3642V36.3359Z" fill="#0E132C"/>
<path d="M58.8357 37.8128L57.9871 36.5832V38.4559H57.5345V35.8342H58.0225L58.8216 37.0779L59.6207 35.8342H60.1086V38.4559H59.6489V36.5762L58.8357 37.8128Z" fill="#0E132C"/>
<path d="M63.9343 38.4559H63.4464L63.1847 37.8269H61.9401L61.6714 38.4559H61.1976L62.3574 35.813H62.7817L63.9343 38.4559ZM62.5624 36.3359L62.1099 37.4524H63.015L62.5624 36.3359Z" fill="#0E132C"/>
<path d="M65.4972 35.8342V38.4559H65.0587V35.8342H65.4972Z" fill="#0E132C"/>
<path d="M68.6652 35.8342H69.1178V38.4559H68.7359L67.3216 36.5903V38.4559H66.869V35.8342H67.2933L68.7077 37.6503L68.6652 35.8342Z" fill="#0E132C"/>
<path d="M71.5292 38.4559H71.0696V36.2653H70.2351V35.8342H72.3566V36.2653H71.5222L71.5292 38.4559Z" fill="#0E132C"/>
<path d="M75.4257 36.2511H73.9336V36.9578H75.256V37.3747H73.9336V38.0813H75.4398V38.4912H73.481V35.8342H75.4257V36.2511Z" fill="#0E132C"/>
<path d="M78.4523 35.8342H78.912V38.4559H78.4948L77.0804 36.5903V38.4559H76.6208V35.8342H77.0451L78.4594 37.6503L78.4523 35.8342Z" fill="#0E132C"/>
<path d="M82.7377 38.4559H82.2498L81.9811 37.8269H80.7435L80.4748 38.4559H80.001L81.1537 35.813H81.5851L82.7377 38.4559ZM81.3234 36.3359L80.8991 37.4524H81.8043L81.3234 36.3359Z" fill="#0E132C"/>
<path d="M85.63 35.8342H86.0897V38.4559H85.7078L84.2935 36.5903V38.4559H83.8338V35.8342H84.2652L85.6795 37.6503L85.63 35.8342Z" fill="#0E132C"/>
<path d="M89.4628 38.2297C89.3905 38.2873 89.3123 38.3371 89.2295 38.3781C89.1393 38.4204 89.0443 38.4512 88.9466 38.47C88.8373 38.4934 88.7259 38.5052 88.6142 38.5053C88.4296 38.5079 88.2466 38.4718 88.0768 38.3993C87.9181 38.3346 87.7756 38.2356 87.6596 38.1096C87.5392 37.9875 87.4432 37.8436 87.3767 37.6856C87.3113 37.5141 87.2778 37.3321 87.2777 37.1486C87.2749 36.9671 87.3085 36.7869 87.3767 36.6186C87.4404 36.459 87.5359 36.314 87.6575 36.1925C87.7791 36.071 87.9241 35.9756 88.0839 35.9119C88.2561 35.8395 88.4415 35.8034 88.6284 35.8059C88.7389 35.7945 88.8502 35.7945 88.9607 35.8059C89.0528 35.8257 89.1428 35.8541 89.2295 35.8907C89.3116 35.9246 89.3899 35.9672 89.4628 36.0179C89.5322 36.0704 89.5984 36.127 89.6608 36.1875L89.3638 36.5267C89.2619 36.4319 89.1477 36.3511 89.0244 36.2865C88.9007 36.2279 88.7652 36.1989 88.6284 36.2017C88.509 36.1991 88.3906 36.2232 88.2819 36.2723C88.1776 36.3192 88.0838 36.3865 88.0061 36.4702C87.9262 36.5564 87.8638 36.6571 87.8222 36.767C87.7794 36.8823 87.7578 37.0044 87.7586 37.1274C87.7573 37.2527 87.7788 37.3772 87.8222 37.4948C87.8638 37.6047 87.9262 37.7055 88.0061 37.7916C88.0836 37.8774 88.1773 37.9471 88.2819 37.9966C88.3917 38.0423 88.5094 38.0663 88.6284 38.0672C88.7707 38.0721 88.9119 38.0404 89.0385 37.9754C89.1598 37.9047 89.2735 37.8218 89.378 37.728L89.675 38.0248C89.6119 38.1006 89.5407 38.1693 89.4628 38.2297V38.2297Z" fill="#0E132C"/>
<path d="M92.7299 36.2511H91.2236V36.9578H92.539V37.3747H91.2236V38.0813H92.7299V38.4912H90.764V35.8342H92.7087L92.7299 36.2511Z" fill="#0E132C"/>
<path d="M94.0523 38.4559H93.8613V37.9471H94.3564V38.3781C94.3711 38.5438 94.3204 38.7087 94.2149 38.8375C94.0933 38.9383 93.9415 38.9955 93.7836 39L93.7341 38.8092C93.9462 38.7668 94.0523 38.6467 94.0523 38.4559Z" fill="#0E132C"/>
<path d="M99.5186 37.3252C99.5241 37.4982 99.4977 37.6706 99.4408 37.834C99.3929 37.9735 99.3157 38.1012 99.2145 38.2085C99.1153 38.308 98.9942 38.383 98.861 38.4276C98.5569 38.5217 98.2315 38.5217 97.9275 38.4276C97.7964 38.3827 97.6777 38.3077 97.581 38.2085C97.4792 38.1071 97.4018 37.9839 97.3547 37.8482C97.2987 37.687 97.2723 37.517 97.2769 37.3464V35.8342H97.7295V37.3252C97.717 37.5268 97.78 37.7258 97.9063 37.8835C97.9705 37.9486 98.0478 37.9993 98.1332 38.0322C98.2186 38.0651 98.31 38.0795 98.4013 38.0743C98.491 38.0798 98.5809 38.0663 98.665 38.0346C98.7491 38.003 98.8255 37.9539 98.8892 37.8905C99.0153 37.7382 99.0785 37.5437 99.066 37.3464V35.8342H99.5186V37.3252Z" fill="#0E132C"/>
<path d="M102.736 37.1062C102.681 37.2149 102.604 37.3111 102.51 37.3888C102.407 37.4634 102.292 37.5207 102.17 37.5584C102.037 37.596 101.899 37.615 101.76 37.615H101.237V38.4559H100.784V35.8342H101.831C101.973 35.8324 102.114 35.8539 102.248 35.8978C102.363 35.9351 102.469 35.9952 102.559 36.0745C102.647 36.1501 102.717 36.2442 102.764 36.3501C102.808 36.4675 102.83 36.5921 102.828 36.7175C102.825 36.8521 102.794 36.9846 102.736 37.1062V37.1062ZM102.192 36.3995C102.072 36.315 101.928 36.2727 101.782 36.2794H101.237V37.2263H101.782C101.931 37.2343 102.079 37.1893 102.199 37.0991C102.248 37.0561 102.286 37.0026 102.312 36.9427C102.338 36.8828 102.35 36.818 102.347 36.7529C102.357 36.6812 102.348 36.6081 102.321 36.5411C102.294 36.4741 102.249 36.4155 102.192 36.3713V36.3995Z" fill="#0E132C"/>
<path d="M106.194 37.6644C106.13 37.8238 106.035 37.9686 105.913 38.09C105.791 38.2115 105.647 38.3071 105.487 38.3711C105.307 38.441 105.115 38.4747 104.921 38.47H103.953V35.8342H104.928C105.121 35.8331 105.313 35.8666 105.494 35.9331C105.657 35.9995 105.808 36.0927 105.94 36.2087C106.062 36.3279 106.16 36.4694 106.23 36.6256C106.295 36.7899 106.328 36.9649 106.329 37.1415C106.318 37.3228 106.272 37.5004 106.194 37.6644ZM105.742 36.7882C105.698 36.6835 105.636 36.5877 105.558 36.5055C105.475 36.4243 105.376 36.3617 105.268 36.3218C105.149 36.2721 105.022 36.248 104.893 36.2511H104.377V38.046H104.893C105.021 38.0458 105.148 38.0218 105.268 37.9753C105.376 37.9354 105.475 37.8728 105.558 37.7916C105.639 37.7118 105.702 37.6154 105.742 37.509C105.786 37.394 105.807 37.2717 105.805 37.1486C105.806 37.0256 105.784 36.9035 105.742 36.7882V36.7882Z" fill="#0E132C"/>
<path d="M109.808 38.4559H109.32L109.058 37.8269H107.814L107.545 38.4559H107.071L108.195 35.813H108.627L109.808 38.4559ZM108.436 36.3359L107.983 37.4524H108.903L108.436 36.3359Z" fill="#0E132C"/>
<path d="M111.661 38.4559H111.194V36.2653H110.359V35.8342H112.481V36.2653H111.661V38.4559Z" fill="#0E132C"/>
<path d="M115.55 36.2511H114.065V36.9578H115.38V37.3747H114.065V38.0813H115.571V38.4912H113.605V35.8342H115.55V36.2511Z" fill="#0E132C"/>
<path d="M119.022 37.6644C118.954 37.8211 118.855 37.9628 118.732 38.0813C118.606 38.2012 118.457 38.2948 118.294 38.3569C118.114 38.4269 117.921 38.4605 117.728 38.4559H116.752V35.8342H117.728C117.921 35.8331 118.113 35.8666 118.294 35.9331C118.456 35.9972 118.604 36.0907 118.732 36.2087C118.857 36.326 118.956 36.468 119.022 36.6256C119.091 36.7888 119.125 36.9645 119.121 37.1415C119.125 37.3208 119.091 37.4988 119.022 37.6644ZM118.577 36.7882C118.53 36.6849 118.468 36.5895 118.393 36.5055C118.309 36.4259 118.211 36.3635 118.103 36.3218C117.984 36.2727 117.856 36.2486 117.728 36.2511H117.205V38.046H117.728C117.856 38.0451 117.983 38.0212 118.103 37.9753C118.211 37.9362 118.309 37.8742 118.391 37.7937C118.472 37.7133 118.536 37.6161 118.577 37.509C118.621 37.394 118.642 37.2717 118.64 37.1486C118.641 37.0256 118.619 36.9035 118.577 36.7882V36.7882Z" fill="#0E132C"/>
</g>
<defs>
<clipPath id="clip0">
<rect width="168" height="39" fill="white"/>
</clipPath>
</defs>
</svg>
