<svg width="20" height="14" viewBox="0 0 20 14" fill="none" xmlns="http://www.w3.org/2000/svg">
<path d="M1.60001 0.76001C1.31688 0.76001 1.0572 0.845323 0.835007 0.98501L9.35501 8.19245C9.74501 8.52245 10.2709 8.52245 10.66 8.19245L19.1651 0.98501C18.9429 0.845323 18.6833 0.76001 18.4001 0.76001H1.60001ZM0.242519 1.7275C0.190957 1.87562 0.160019 2.03405 0.160019 2.20001V11.8C0.160019 12.0888 0.247206 12.355 0.392519 12.58L6.48996 7.02257L0.242519 1.7275ZM19.7574 1.7275L13.5248 7.01494L19.6074 12.5801C19.7527 12.3551 19.8399 12.0888 19.8399 11.8001V2.20006C19.8399 2.03412 19.809 1.87567 19.7574 1.72755V1.7275ZM12.79 7.64494L11.275 8.92745C10.5418 9.549 9.46558 9.54807 8.7324 8.92745L7.22491 7.65245L1.17235 13.1725C1.30735 13.2146 1.44984 13.24 1.59984 13.24H18.3998C18.5498 13.24 18.6924 13.2146 18.8273 13.1725L12.79 7.64494Z" fill="#0296D0"/>
</svg>
