<svg width="56" height="56" viewBox="0 0 56 56" fill="none" xmlns="http://www.w3.org/2000/svg">
<rect x="0.5" y="0.5" width="55" height="55" rx="27.5" fill="white" stroke="#0296D0"/>
<path d="M23.2886 20.1625C23.8511 18.7725 23.5274 17.1862 22.4686 16.1276L20.5524 14.2114C19.7373 13.3963 18.4099 13.3963 17.5949 14.2114C17.3724 14.4339 17.3724 14.7951 17.5949 15.0176L20.5874 18.0101C21.0011 18.4239 21.0011 19.1014 20.5874 19.5151L19.5149 20.5876C19.0986 21.0039 18.4236 21.0014 18.0099 20.5876L15.0173 17.5951C14.7949 17.3726 14.4336 17.3726 14.2111 17.5951C13.3961 18.4101 13.3961 19.7376 14.2111 20.5526L16.1274 22.4689C17.1861 23.5276 18.7724 23.8501 20.1622 23.2889C20.6897 23.0739 21.3397 23.2239 21.7785 23.6626C24.246 26.1251 29.8783 31.7564 32.3411 34.2188C32.7786 34.6563 32.9298 35.3075 32.7123 35.8375C32.1498 37.2275 32.4736 38.8138 33.5323 39.8724L35.4486 41.7887C36.2636 42.6037 37.5911 42.6037 38.4061 41.7887C38.6286 41.5662 38.6286 41.2049 38.4061 40.9824L35.4111 37.9874C34.9973 37.5737 34.9973 36.9012 35.4111 36.4874L36.4861 35.4124C36.8998 34.9987 37.5773 34.9987 37.9911 35.4124L40.9836 38.4049C41.2061 38.6274 41.5673 38.6274 41.7898 38.4049C42.6048 37.5899 42.6048 36.2624 41.7898 35.4474L39.8736 33.5312C38.8148 32.4724 37.2286 32.1499 35.8387 32.7112C35.3125 32.9262 34.6612 32.7762 34.2224 32.3374L23.6624 21.7787C23.2237 21.3399 23.0737 20.6899 23.2887 20.1624L23.2886 20.1625Z" fill="#0296D0"/>
<path d="M23.9175 26.8734C23.6787 26.6359 23.2937 26.6359 23.055 26.8734L21.835 28.0934C21.5937 28.3347 21.5962 28.7284 21.835 28.9672L21.8375 28.9697C22.0662 29.1984 22.0662 29.5684 21.8375 29.7972L21.605 30.0297C21.3762 30.2584 21.0062 30.2584 20.7775 30.0297L20.775 30.0272C20.5363 29.7884 20.1437 29.7859 19.9012 30.0272L14.7464 35.1833C13.2164 36.7133 13.2164 39.1958 14.7464 40.7257L15.2739 41.2532C16.8026 42.782 19.2851 42.7782 20.8137 41.2507L25.9724 36.0981C26.0862 35.9843 26.1524 35.8243 26.1524 35.6618C26.1524 35.4993 26.0887 35.3418 25.9724 35.2256C25.7437 34.9968 25.7437 34.6268 25.9724 34.3981L26.2049 34.1656C26.4337 33.9368 26.8037 33.9368 27.0324 34.1656C27.2737 34.4068 27.6649 34.4068 27.9062 34.1656L29.1274 32.9443C29.3662 32.7056 29.3662 32.3194 29.1274 32.0819C27.4799 30.4344 25.5648 28.5193 23.9175 26.8732V26.8734ZM16.0448 38.1698C15.8036 37.9285 15.8061 37.5347 16.0448 37.296L20.4874 32.8547C20.7262 32.616 21.1187 32.6135 21.3612 32.8547C21.6024 33.096 21.5999 33.4897 21.3612 33.7285L16.9173 38.1698C16.6786 38.4085 16.2861 38.411 16.0448 38.1698H16.0448ZM23.145 35.5123L18.7024 39.9548C18.4637 40.1936 18.0712 40.1961 17.8287 39.9548C17.5874 39.7136 17.5899 39.3198 17.8287 39.0811L22.2712 34.6385C22.51 34.3997 22.9025 34.3972 23.145 34.6385C23.3863 34.881 23.3838 35.2735 23.145 35.5123Z" fill="#0296D0"/>
<path d="M34.1725 19.6464C34.2138 19.6876 34.2138 19.7514 34.175 19.7889L28.4624 25.5025L30.4999 27.54L36.2135 21.8264C36.251 21.7889 36.3148 21.7889 36.3535 21.8264C36.3735 21.8464 36.3998 21.8676 36.4235 21.8851C37.0785 22.3776 38.016 22.2426 38.5085 21.5876L42.2759 16.6039C42.4621 16.3589 42.4384 16.0152 42.2209 15.7977L40.2046 13.7839C39.9859 13.5652 39.6421 13.5427 39.3959 13.7252L34.4109 17.4925C33.7559 17.9838 33.6222 18.9226 34.1197 19.5888C34.1347 19.6088 34.1547 19.6288 34.1722 19.6463L34.1725 19.6464Z" fill="#0296D0"/>
</svg>
