<svg width="22" height="29" viewBox="0 0 22 29" fill="none" xmlns="http://www.w3.org/2000/svg">
<path d="M21.3699 5.06979L11.3699 1.06979C11.1324 0.974785 10.8674 0.974785 10.6299 1.06979L0.629894 5.06979C0.248646 5.22104 -0.00012207 5.58979 -0.00012207 5.99977V17.9998C-0.00012207 23.4596 9.46996 28.3498 10.55 28.8897C10.8325 29.0322 11.1675 29.0322 11.45 28.8897C12.53 28.3497 22 23.4596 22 17.9998V5.99977C22 5.58979 21.7513 5.22102 21.37 5.06979H21.3699ZM15.12 11.9997L11.12 18.9997C10.9637 19.2697 10.69 19.451 10.38 19.4897H10.25C9.98372 19.4909 9.72873 19.3872 9.53996 19.1997L6.99996 16.7097C6.60745 16.3172 6.60745 15.6822 6.99996 15.2897C7.39247 14.8972 8.02745 14.8972 8.41996 15.2897L9.99996 16.8697L13.3798 10.9996C13.656 10.5196 14.2698 10.3534 14.7498 10.6296C15.2298 10.9059 15.396 11.5196 15.1198 11.9996L15.12 11.9997Z" fill="#0296D0"/>
</svg>
