<svg width="64" height="51" viewBox="0 0 64 51" fill="none" xmlns="http://www.w3.org/2000/svg">
<path d="M1.54085 44.2993L1.043 44.5416L1.33467 45.0122L4.37335 49.9156L4.60226 50.2849L4.99994 50.1097C11.6555 47.1776 17.3348 42.8712 22.0336 37.1957C26.7798 31.5186 29.1934 25.8384 29.1934 20.1632C29.1934 14.152 27.8188 9.37668 25.0077 5.89854C22.1795 2.39928 18.134 0.671387 12.9475 0.671387C9.59749 0.671387 6.66832 1.82474 4.18297 4.11891L4.18295 4.11889L4.17943 4.12221C1.74148 6.41675 0.5 9.12287 0.5 12.2211C0.5 13.6976 0.714445 15.1288 1.14402 16.513L1.14632 16.5204L1.14886 16.5278C1.63476 17.9369 2.43486 19.2182 3.53957 20.371L3.53987 20.3713C4.70778 21.5879 6.2283 22.5234 8.08247 23.189C9.95209 23.8602 12.3402 24.1853 15.2266 24.1853H18.5377C18.0128 28.6398 16.3672 32.4317 13.6075 35.5794C10.7156 38.878 6.70044 41.788 1.54085 44.2993ZM35.5879 44.2993L35.0901 44.5416L35.3817 45.0122L38.4204 49.9156L38.6493 50.2849L39.047 50.1097C45.7026 47.1776 51.3818 42.8712 56.0807 37.1957C60.8268 31.5186 63.2405 25.8384 63.2405 20.1632C63.2405 14.152 61.8659 9.37668 59.0548 5.89854C56.2266 2.39928 52.1811 0.671387 46.9946 0.671387C43.6445 0.671387 40.7154 1.82474 38.23 4.11889L38.2265 4.12221C35.7885 6.41675 34.5471 9.12287 34.5471 12.2211C34.5471 13.6976 34.7615 15.1288 35.1911 16.513L35.1934 16.5204L35.1959 16.5278C35.6818 17.9369 36.4819 19.2182 37.5866 20.371L37.5869 20.3713C38.7548 21.5879 40.2754 22.5234 42.1295 23.189C43.9991 23.8602 46.3872 24.1853 49.2736 24.1853H52.5847C52.0599 28.6398 50.4142 32.4317 47.6545 35.5794C44.7627 38.878 40.7475 41.788 35.5879 44.2993Z" stroke="#F5FBFD"/>
</svg>
