<svg width="56" height="56" viewBox="0 0 56 56" fill="none" xmlns="http://www.w3.org/2000/svg">
<rect x="0.5" y="0.5" width="55" height="55" rx="27.5" fill="white" stroke="#0296D0"/>
<path d="M41.4688 36.5849C41.4688 36.5849 30.0788 46.2374 17.9712 35.2162L14.5312 38.6562V26.3125H26.8663L23.4349 29.7474C34.0148 39.6437 41.4685 36.5848 41.4685 36.5848L41.4688 36.5849Z" fill="#0296D0"/>
<path d="M41.0274 36.1401C41.0024 36.1626 40.9749 36.1839 40.9499 36.2051C40.9186 36.2301 40.8849 36.2551 40.8524 36.2801C40.7749 36.3401 40.9961 36.1701 40.9399 36.2114C40.9299 36.2214 40.9174 36.2264 40.9086 36.2364C40.8836 36.2551 40.8611 36.2739 40.8374 36.2926C40.5436 36.5151 40.2399 36.7201 39.9312 36.9214C39.4687 37.2214 38.9937 37.4989 38.5062 37.7564C38.2124 37.9126 37.9161 38.0589 37.6162 38.2001C37.4512 38.2776 37.2849 38.3539 37.1162 38.4251C37.0812 38.4401 37.0449 38.4564 37.0099 38.4726C36.9874 38.4826 36.9662 38.4914 36.9449 38.5001C36.8737 38.5314 37.1037 38.4351 37.0012 38.4776C36.9112 38.5151 36.8199 38.5526 36.7262 38.5901C35.9762 38.8901 35.2074 39.1464 34.4237 39.3464C33.9987 39.4564 33.5712 39.5489 33.1387 39.6276C32.9137 39.6676 32.6912 39.7026 32.4662 39.7339C32.4262 39.7401 32.3474 39.7464 32.5262 39.7276C32.4949 39.7301 32.4662 39.7376 32.4362 39.7401C32.3837 39.7464 32.3262 39.7526 32.2737 39.7589C32.1512 39.7739 32.0299 39.7864 31.9087 39.7964C30.9312 39.8864 29.9462 39.8939 28.9687 39.8064C28.8462 39.7964 28.7249 39.7839 28.6037 39.7689C28.5349 39.7626 28.4662 39.7539 28.4012 39.7439C28.3737 39.7414 28.3487 39.7376 28.3199 39.7339C28.1724 39.7151 28.4674 39.7564 28.3224 39.7339C28.0599 39.6964 27.7975 39.6526 27.535 39.6026C26.9912 39.5001 26.4537 39.3651 25.9224 39.2051C25.3599 39.0364 24.8099 38.8364 24.2662 38.6114C24.1599 38.5676 24.2662 38.6114 24.2812 38.6176C24.2374 38.6026 24.1937 38.5801 24.1499 38.5614C24.0899 38.5364 24.0312 38.5089 23.9724 38.4839C23.8224 38.4189 23.6749 38.3489 23.5287 38.2776C23.2412 38.1401 22.9562 37.9926 22.6787 37.8401C22.0887 37.5176 21.5137 37.1651 20.9562 36.7864C20.6625 36.5864 20.3712 36.3764 20.0875 36.1651C20.05 36.1376 20.0125 36.1051 19.9725 36.0776C19.95 36.0626 19.85 35.9839 19.9375 36.0526C19.875 36.0051 19.815 35.9551 19.7525 35.9089C19.5962 35.7864 19.4425 35.6614 19.2925 35.5338C18.995 35.2863 18.7025 35.0301 18.4175 34.7714C18.1675 34.5439 17.7825 34.5239 17.5325 34.7714C16.53 35.7738 15.5225 36.7813 14.52 37.7839L14.095 38.2089C14.4512 38.3564 14.8075 38.5026 15.16 38.6489V37.4176V34.4776V30.9214V27.8339C15.16 27.3364 15.1825 26.8339 15.16 26.3364V26.3139L14.535 26.9389H15.7662H18.7062H22.2624H25.3499C25.8474 26.9389 26.3499 26.9614 26.8474 26.9389H26.8699C26.7224 26.5827 26.5761 26.2264 26.4299 25.8739L22.9972 29.3066C22.766 29.5378 22.7497 29.9591 22.9972 30.1916C24.8197 31.8916 26.7873 33.454 28.9348 34.7266C30.5161 35.6641 32.2075 36.4454 33.9697 36.9704C35.2547 37.3516 36.5885 37.5916 37.9259 37.6454C38.8196 37.6804 39.7159 37.6229 40.5984 37.4604C40.9459 37.3954 41.2959 37.3166 41.6259 37.1916C41.6284 37.1891 41.6359 37.1891 41.6384 37.1854C41.9384 37.0604 42.1884 36.7629 42.0759 36.4166C41.9821 36.1254 41.6321 35.8479 41.3072 35.9791C41.0472 36.0854 40.7696 36.1516 40.4972 36.2066C40.3497 36.2379 40.1997 36.2666 40.0497 36.2916C40.0097 36.2979 39.9722 36.3041 39.9309 36.3104C39.8622 36.3204 39.6659 36.3454 39.9409 36.3104C39.8472 36.3229 39.7534 36.3354 39.6597 36.3454C39.2197 36.3929 38.7784 36.4104 38.3372 36.4079C37.7784 36.4016 37.2209 36.3579 36.6684 36.2891C36.5684 36.2766 36.8459 36.3141 36.6997 36.2916C36.6622 36.2854 36.6284 36.2816 36.5897 36.2766C36.5122 36.2641 36.4335 36.2516 36.3547 36.2391C36.1922 36.2116 36.0297 36.1829 35.8697 36.1516C35.5297 36.0866 35.1947 36.0079 34.861 35.9204C34.0922 35.7204 33.3385 35.4641 32.601 35.1704C32.5072 35.1329 32.4135 35.0854 32.316 35.0554C32.3285 35.0579 32.456 35.1154 32.3597 35.0741C32.3347 35.0641 32.3122 35.0516 32.2885 35.0429C32.236 35.0204 32.1785 34.9954 32.126 34.9716C31.916 34.8816 31.711 34.7841 31.5047 34.6866C31.0735 34.4804 30.6522 34.2616 30.236 34.0341C29.286 33.5091 28.371 32.9216 27.486 32.2904C27.2422 32.1154 27.001 31.9403 26.7635 31.7591C26.7072 31.7153 26.6485 31.6716 26.591 31.6278C26.5722 31.6153 26.4972 31.5566 26.5885 31.6253C26.561 31.6028 26.5322 31.5816 26.501 31.5603C26.376 31.4628 26.2535 31.3666 26.1322 31.2691C25.626 30.8628 25.1322 30.4466 24.651 30.0166C24.391 29.7853 24.136 29.5516 23.8823 29.3141V30.1991L26.8922 27.1891C27.0322 27.0491 27.1735 26.9078 27.3147 26.7666C27.696 26.3853 27.4147 25.7016 26.8747 25.7016H25.6435H22.7035H19.1473H16.0598C15.5623 25.7016 15.0598 25.6891 14.5623 25.7016H14.5398C14.2023 25.7016 13.9148 25.9891 13.9148 26.3266V27.5579V30.4979V34.054V37.1415C13.9148 37.639 13.8961 38.1415 13.9148 38.639V38.6615C13.9148 39.2015 14.5998 39.4865 14.9798 39.1015L17.9923 36.089C18.1323 35.949 18.2773 35.804 18.4173 35.664H17.5323C19.6348 37.5765 22.0322 39.1664 24.7173 40.1366C26.7698 40.8766 28.9771 41.2141 31.1573 41.1116C32.9848 41.0241 34.8011 40.6429 36.5199 40.0141C37.8199 39.5391 39.0761 38.9366 40.2549 38.2079C40.8136 37.8604 41.4024 37.4929 41.8949 37.0517C41.9011 37.0454 41.9074 37.0392 41.9136 37.0367C42.1636 36.8242 42.1486 36.3679 41.9136 36.1517C41.6436 35.8979 41.2936 35.9154 41.0274 36.1404L41.0274 36.1401Z" fill="#0296D0"/>
<path d="M14.5312 19.4149C14.5312 19.4149 25.9213 9.76242 38.0288 20.7836L41.4688 17.3436V29.6873H29.1338L32.5652 26.2524C21.9853 16.3561 14.5316 19.415 14.5316 19.415L14.5312 19.4149Z" fill="#0296D0"/>
<path d="M14.9725 19.8598C14.9975 19.8373 15.025 19.816 15.05 19.7948C15.0812 19.7698 15.115 19.7448 15.1475 19.7198C15.225 19.6598 15.0037 19.8298 15.06 19.7885C15.07 19.7785 15.0825 19.7735 15.0912 19.7635C15.1162 19.7448 15.1387 19.726 15.1625 19.7073C15.4562 19.4848 15.76 19.2798 16.0687 19.0785C16.5312 18.7785 17.0062 18.501 17.4937 18.2435C17.7875 18.0873 18.0837 17.941 18.3837 17.7998C18.5487 17.7223 18.715 17.646 18.8837 17.5748C18.9187 17.5598 18.9549 17.5435 18.9899 17.5273C19.0124 17.5173 19.0337 17.5085 19.0549 17.4998C19.1262 17.4685 18.8962 17.5648 18.9987 17.5223C19.0887 17.4848 19.1799 17.4473 19.2737 17.4098C20.0237 17.1098 20.7924 16.8535 21.5762 16.6535C22.0012 16.5435 22.4287 16.451 22.8612 16.3723C23.0862 16.3323 23.3087 16.2973 23.5337 16.266C23.5737 16.2598 23.6524 16.2535 23.4737 16.2723C23.5049 16.2698 23.5337 16.2623 23.5637 16.2598C23.6162 16.2535 23.6737 16.2473 23.7262 16.241C23.8487 16.226 23.9699 16.2135 24.0912 16.2035C25.0687 16.1135 26.0537 16.106 27.0312 16.1935C27.1537 16.2035 27.2749 16.216 27.3962 16.231C27.4649 16.2373 27.5337 16.246 27.5987 16.256C27.6262 16.2585 27.6512 16.2623 27.6799 16.266C27.8274 16.2848 27.5324 16.2435 27.6774 16.266C27.9399 16.3035 28.2024 16.3473 28.4649 16.3973C29.0087 16.4998 29.5462 16.6348 30.0774 16.7948C30.6399 16.9635 31.1899 17.1635 31.7337 17.3886C31.8399 17.4323 31.7337 17.3886 31.7187 17.3823C31.7624 17.3973 31.8062 17.4198 31.8499 17.4386C31.9099 17.4636 31.9687 17.4911 32.0274 17.5161C32.1774 17.5811 32.3249 17.6511 32.4712 17.7223C32.7587 17.8598 33.0437 18.0073 33.3212 18.1598C33.9112 18.4823 34.4861 18.8348 35.0436 19.2136C35.3374 19.4136 35.6286 19.6236 35.9124 19.8348C35.9499 19.8623 35.9874 19.8948 36.0274 19.9223C36.0499 19.9373 36.1499 20.0161 36.0624 19.9473C36.1249 19.9948 36.1849 20.0448 36.2474 20.0911C36.4036 20.2136 36.5574 20.3386 36.7074 20.4661C37.0049 20.7136 37.2974 20.9698 37.5824 21.2286C37.8324 21.4561 38.2174 21.4761 38.4674 21.2286C39.4699 20.2261 40.4774 19.2186 41.4799 18.2161L41.9049 17.7911C41.5486 17.6436 41.1924 17.4973 40.8399 17.3511V18.5823V21.5223V25.0785V28.166C40.8399 28.6635 40.8174 29.166 40.8399 29.6635V29.686L41.4649 29.061H40.2336H37.2936H33.7375H30.65C30.1525 29.061 29.65 29.0385 29.1525 29.061H29.13C29.2775 29.4173 29.4237 29.7735 29.57 30.126L33.0026 26.6933C33.2339 26.4621 33.2501 26.0408 33.0026 25.8084C31.1801 24.1084 29.2125 22.546 27.065 21.2733C25.4838 20.3358 23.7924 19.5546 22.0301 19.0296C20.7451 18.6483 19.4114 18.4083 18.074 18.3546C17.1802 18.3196 16.284 18.3771 15.4015 18.5396C15.054 18.6046 14.704 18.6833 14.374 18.8083C14.3715 18.8108 14.364 18.8108 14.3615 18.8146C14.0615 18.9396 13.8115 19.2371 13.924 19.5833C14.0177 19.8745 14.3677 20.152 14.6927 20.0208C14.9527 19.9145 15.2302 19.8483 15.5027 19.7933C15.6502 19.762 15.8002 19.7333 15.9502 19.7083C15.9902 19.702 16.0277 19.6958 16.0689 19.6895C16.1377 19.6795 16.3339 19.6545 16.0589 19.6895C16.1527 19.677 16.2464 19.6645 16.3402 19.6545C16.7802 19.607 17.2214 19.5895 17.6627 19.592C18.2214 19.5983 18.7789 19.642 19.3314 19.7108C19.4314 19.7233 19.1539 19.6858 19.3002 19.7083C19.3377 19.7145 19.3714 19.7183 19.4102 19.7233C19.4877 19.7358 19.5664 19.7483 19.6452 19.7608C19.8077 19.7883 19.9702 19.817 20.1302 19.8483C20.4702 19.9133 20.8052 19.992 21.1389 20.0795C21.9076 20.2796 22.6614 20.5358 23.3989 20.8296C23.4926 20.8671 23.5864 20.9146 23.6839 20.9446C23.6714 20.9421 23.5439 20.8846 23.6401 20.9258C23.6651 20.9358 23.6876 20.9483 23.7114 20.9571C23.7639 20.9796 23.8214 21.0046 23.8739 21.0283C24.0839 21.1183 24.2889 21.2158 24.4951 21.3133C24.9264 21.5196 25.3477 21.7383 25.7639 21.9658C26.7139 22.4908 27.6289 23.0783 28.5139 23.7096C28.7576 23.8846 28.9989 24.0596 29.2364 24.2408C29.2926 24.2846 29.3514 24.3283 29.4089 24.3721C29.4276 24.3846 29.5026 24.4433 29.4114 24.3746C29.4389 24.3971 29.4676 24.4183 29.4989 24.4396C29.6239 24.5371 29.7464 24.6333 29.8676 24.7308C30.3739 25.1371 30.8676 25.5533 31.3489 25.9834C31.6089 26.2146 31.8639 26.4483 32.1176 26.6858V25.8009L29.1076 28.8108C28.9676 28.9508 28.8264 29.0921 28.6851 29.2333C28.3039 29.6146 28.5851 30.2983 29.1251 30.2983H30.3564H33.2964H36.8525H39.94C40.4375 30.2983 40.94 30.3108 41.4375 30.2983H41.46C41.7975 30.2983 42.085 30.0108 42.085 29.6733V28.4421V25.5021V21.9459V18.8584C42.085 18.3609 42.1038 17.8584 42.085 17.3609V17.3384C42.085 16.7984 41.4 16.5134 41.02 16.8984L38.0075 19.9109C37.8675 20.0509 37.7225 20.1959 37.5825 20.3359H38.4675C36.365 18.4234 33.9677 16.8335 31.2826 15.8633C29.2313 15.1308 27.025 14.7933 24.8439 14.897C23.0164 14.9845 21.2 15.3658 19.4813 15.9945C18.1813 16.4696 16.925 17.0721 15.7463 17.8008C15.1875 18.1483 14.5988 18.5158 14.1063 18.957C14.1 18.9633 14.0938 18.9695 14.0875 18.972C13.8375 19.1845 13.8525 19.6408 14.0875 19.857C14.3563 20.102 14.7063 20.0845 14.9725 19.8595L14.9725 19.8598Z" fill="#0296D0"/>
</svg>
