<svg width="56" height="56" viewBox="0 0 56 56" fill="none" xmlns="http://www.w3.org/2000/svg">
<rect x="0.5" y="0.5" width="55" height="55" rx="27.5" fill="white" stroke="#0296D0"/>
<path d="M13.92 18.7201C13.3687 18.7238 12.97 19.2751 12.96 19.6801V34.4001C12.9525 34.9075 13.4125 35.37 13.92 35.37C14.4275 35.37 14.8875 34.9075 14.88 34.4001V20.6401H40.8C41.3075 20.6476 41.77 20.1875 41.77 19.6801C41.77 19.1726 41.3075 18.7126 40.8 18.7201H13.92ZM16.48 21.2801C15.955 21.2838 15.53 21.8351 15.52 22.2401V36.3201C15.52 36.8226 15.9775 37.2801 16.48 37.2801H42.08C42.5825 37.2801 43.04 36.8226 43.04 36.3201V22.2401C43.04 21.7376 42.5825 21.2801 42.08 21.2801H16.48ZM17.44 23.2001H23.5901C22.1538 24.77 21.2801 26.9239 21.2801 29.2801C21.2801 31.6413 22.1588 33.7927 23.6001 35.3601H17.4401L17.44 23.2001ZM26.68 23.2001H31.88C33.9075 24.2651 35.36 26.5713 35.36 29.2801C35.36 31.9976 33.8975 34.3002 31.8598 35.3601H26.6998C24.6623 34.3001 23.1997 31.9975 23.1997 29.2801C23.1997 26.5713 24.6522 24.265 26.6797 23.2001H26.68ZM34.9699 23.2001H41.12V35.3601H34.96C36.4013 33.7926 37.28 31.6413 37.28 29.2801C37.28 26.9238 36.4062 24.77 34.97 23.2001H34.9699ZM29.28 23.5201C28.75 23.5201 28.32 23.9501 28.32 24.4801V24.6601C27.2275 25.0551 26.4 26.0901 26.4 27.3601C26.4 28.2438 26.8613 29.0063 27.4 29.4001C27.9388 29.7938 28.4662 29.9488 28.87 30.1401C29.5175 30.4226 30.2388 30.6788 30.24 31.2001C30.24 31.9026 29.9138 32.1601 29.28 32.1601C28.8225 32.1601 28.4075 31.7838 28.22 31.41C27.995 30.9601 27.38 30.755 26.93 30.98C26.48 31.205 26.275 31.82 26.5 32.27C26.8375 32.9438 27.4638 33.62 28.32 33.92V34.08C28.32 34.61 28.75 35.04 29.28 35.04C29.81 35.04 30.24 34.61 30.24 34.08V33.91C31.3325 33.515 32.16 32.47 32.16 31.2C32.16 30.3162 31.6988 29.5437 31.16 29.15C30.6213 28.7563 30.0938 28.6013 29.69 28.41C29.0462 28.1287 28.3213 27.8712 28.32 27.36C28.32 26.6575 28.645 26.4 29.28 26.4C29.7375 26.4 30.1525 26.7763 30.34 27.15C30.565 27.6 31.18 27.805 31.63 27.58C32.08 27.3551 32.285 26.74 32.06 26.2901C31.7225 25.6163 31.0963 24.9501 30.24 24.6501V24.4801C30.24 23.9501 29.81 23.5201 29.28 23.5201Z" fill="#0296D0"/>
</svg>
