<svg width="22" height="22" viewBox="0 0 22 22" fill="none" xmlns="http://www.w3.org/2000/svg">
<path d="M10.0784 0.953636C7.5236 1.19082 5.15552 2.3927 3.45584 4.31556C1.75709 6.23836 0.855196 8.73684 0.933916 11.3008C1.0136 13.8659 2.06736 16.3033 3.88136 18.1182C5.69636 19.9323 8.13392 20.986 10.6988 21.0656C13.263 21.1444 15.7614 20.2425 17.684 18.5437C19.6068 16.844 20.8088 14.476 21.0459 11.9212C21.3122 8.93892 20.2425 5.99148 18.1256 3.87372C16.0078 1.75684 13.0604 0.687236 10.0782 0.953396L10.0784 0.953636ZM16.4216 8.72748L10.4478 14.6384C10.0756 15.0012 9.4812 15.0012 9.10901 14.6384L5.58773 11.2756C5.20522 10.9081 5.19212 10.2996 5.56055 9.91617C5.92803 9.53366 6.53648 9.52056 6.91993 9.88898L9.76153 12.6151L15.0799 7.3613C15.4596 7.00505 16.054 7.01537 16.4205 7.38662C16.7862 7.75694 16.7899 8.35223 16.429 8.72723L16.4216 8.72748Z" fill="white"/>
</svg>
